<svg id="Layer_1" data-name="Layer 1" xmlns="http://www.w3.org/2000/svg" viewBox="0 0 198.81 276.55"><defs><style>.cls-1{fill:#fff;}</style></defs><path class="cls-1" d="M29.59,250.14a.36.36,0,0,0-.29-.12h-.93a.45.45,0,0,0-.25.07.28.28,0,0,0-.12.2l-1.07,7.8c-.06.19-.16.28-.31.28s-.24-.09-.3-.28L25.37,252a.34.34,0,0,0-.37-.27H23.36A.34.34,0,0,0,23,252L22,258.09c-.06.19-.16.28-.3.28s-.25-.09-.31-.28l-1.07-7.8a.28.28,0,0,0-.12-.2A.45.45,0,0,0,20,250h-.94a.38.38,0,0,0-.38.37.11.11,0,0,0,0,.05.43.43,0,0,0,0,.05l1.5,9.93a.32.32,0,0,0,.36.28h2.21a.33.33,0,0,0,.21-.07.34.34,0,0,0,.14-.21l.77-5.66c.05-.19.15-.29.3-.29a.25.25,0,0,1,.18.08.37.37,0,0,1,.12.21l.77,5.66a.34.34,0,0,0,.14.21.31.31,0,0,0,.21.07h2.21a.32.32,0,0,0,.36-.28l1.5-9.93s0,0,0,0a.13.13,0,0,0,0-.06A.35.35,0,0,0,29.59,250.14Z"/><path class="cls-1" d="M40.71,253.3a5.26,5.26,0,0,0-.87-1.7,4.15,4.15,0,0,0-1.38-1.15,4.32,4.32,0,0,0-3.76,0,4.28,4.28,0,0,0-1.39,1.15,5.24,5.24,0,0,0-.86,1.7,7.53,7.53,0,0,0,0,4.14,5.24,5.24,0,0,0,.86,1.7,4.28,4.28,0,0,0,1.39,1.15,4.32,4.32,0,0,0,3.76,0,4.15,4.15,0,0,0,1.38-1.15,5.26,5.26,0,0,0,.87-1.7,7.53,7.53,0,0,0,0-4.14Zm-1.52,3.45a3.61,3.61,0,0,1-.51,1.18,2.69,2.69,0,0,1-.86.82,2.35,2.35,0,0,1-1.24.31,2.39,2.39,0,0,1-1.25-.31,2.44,2.44,0,0,1-.86-.83,3.88,3.88,0,0,1-.5-1.19A5.61,5.61,0,0,1,34,254a3.61,3.61,0,0,1,.51-1.18,2.59,2.59,0,0,1,.86-.82,2.35,2.35,0,0,1,1.24-.31,2.45,2.45,0,0,1,1.24.3,2.66,2.66,0,0,1,.86.81,3.61,3.61,0,0,1,.51,1.18,5.77,5.77,0,0,1,0,2.78Z"/><path class="cls-1" d="M52.25,253.3a5,5,0,0,0-.86-1.7A4.18,4.18,0,0,0,50,250.45a4.3,4.3,0,0,0-3.75,0,4.18,4.18,0,0,0-1.39,1.15,5,5,0,0,0-.86,1.7,7.29,7.29,0,0,0,0,4.14,5,5,0,0,0,.86,1.7,4.18,4.18,0,0,0,1.39,1.15,4.3,4.3,0,0,0,3.75,0,4.18,4.18,0,0,0,1.39-1.15,5,5,0,0,0,.86-1.7,7.29,7.29,0,0,0,0-4.14Zm-1.51,3.45a3.61,3.61,0,0,1-.51,1.18,2.62,2.62,0,0,1-.87.82,2.31,2.31,0,0,1-1.24.31,2.38,2.38,0,0,1-1.24-.31,2.44,2.44,0,0,1-.86-.83,3.66,3.66,0,0,1-.51-1.19,5.61,5.61,0,0,1,0-2.74,3.61,3.61,0,0,1,.51-1.18,2.62,2.62,0,0,1,.87-.82,2.32,2.32,0,0,1,1.23-.31,2.4,2.4,0,0,1,1.24.3,2.59,2.59,0,0,1,.87.81,3.61,3.61,0,0,1,.51,1.18,6.12,6.12,0,0,1,0,2.78Z"/><path class="cls-1" d="M63.26,252.15a3.44,3.44,0,0,0-.75-1.12,3.32,3.32,0,0,0-1.11-.74A3.47,3.47,0,0,0,60,250h-3.5a.46.46,0,0,0-.25.08.32.32,0,0,0-.12.27v10a.36.36,0,0,0,.11.25.33.33,0,0,0,.26.11H60a3.47,3.47,0,0,0,1.36-.27,3.5,3.5,0,0,0,1.86-1.87,3.28,3.28,0,0,0,.28-1.36v-3.7A3.23,3.23,0,0,0,63.26,252.15Zm-1.38,5a1.89,1.89,0,0,1-.14.72,1.87,1.87,0,0,1-.4.59,1.82,1.82,0,0,1-.58.4,1.72,1.72,0,0,1-.72.15H58.21a.32.32,0,0,1-.27-.12.4.4,0,0,1-.1-.26V252a.4.4,0,0,1,.09-.24.3.3,0,0,1,.28-.13H60a1.69,1.69,0,0,1,.7.15,2,2,0,0,1,.59.4,2,2,0,0,1,.4.59,1.69,1.69,0,0,1,.15.7Z"/><path class="cls-1" d="M75.16,250.13a.36.36,0,0,0-.26-.11H68.27a.45.45,0,0,0-.24.09.32.32,0,0,0-.13.28v9.93a.32.32,0,0,0,.13.28.4.4,0,0,0,.24.1h.94a.38.38,0,0,0,.26-.11.39.39,0,0,0,.1-.27v-3.77a.38.38,0,0,1,.11-.25.35.35,0,0,1,.26-.12h4.29a.34.34,0,0,0,.28-.12.38.38,0,0,0,.09-.25v-.92a.34.34,0,0,0-.11-.25.35.35,0,0,0-.26-.1H69.94a.32.32,0,0,1-.27-.12.43.43,0,0,1-.1-.27v-2.1a.44.44,0,0,1,.1-.26.34.34,0,0,1,.27-.11h5a.36.36,0,0,0,.37-.39v-.9A.36.36,0,0,0,75.16,250.13Z"/><path class="cls-1" d="M81,250.12a.32.32,0,0,0-.25-.1h-.94a.33.33,0,0,0-.26.11.36.36,0,0,0-.09.24v10a.43.43,0,0,0,.09.25.33.33,0,0,0,.26.11h.94a.3.3,0,0,0,.25-.11.35.35,0,0,0,.1-.25v-10A.33.33,0,0,0,81,250.12Z"/><path class="cls-1" d="M92.9,260.1l-2.18-3.63a.91.91,0,0,0-.11-.16.27.27,0,0,1-.06-.16.3.3,0,0,1,.12-.25.57.57,0,0,1,.25-.14,2.77,2.77,0,0,0,.83-.4,3.08,3.08,0,0,0,1.09-1.46,3,3,0,0,0,.16-1,2.94,2.94,0,0,0-.23-1.14,2.88,2.88,0,0,0-.63-.94,3,3,0,0,0-.94-.62,2.75,2.75,0,0,0-1.15-.23H86a.39.39,0,0,0-.26.1.34.34,0,0,0-.11.25v10a.34.34,0,0,0,.11.27.43.43,0,0,0,.26.09h1a.3.3,0,0,0,.25-.11.35.35,0,0,0,.1-.25v-5.11a.47.47,0,0,1,.1-.25.37.37,0,0,1,.29-.12A.32.32,0,0,1,88,255l3.18,5.56a.38.38,0,0,0,.28.13h1.19a.36.36,0,0,0,.27-.11.33.33,0,0,0,.12-.25.2.2,0,0,0,0-.14Zm-5.23-5.84a.35.35,0,0,1-.28-.12.44.44,0,0,1-.09-.27v-1.82a.42.42,0,0,1,.09-.27.35.35,0,0,1,.28-.12h2.38A1.3,1.3,0,0,1,91.34,253a1.45,1.45,0,0,1-.1.51,1.34,1.34,0,0,1-.28.42,1.13,1.13,0,0,1-.41.27,1.22,1.22,0,0,1-.5.11Z"/><path class="cls-1" d="M98.45,251.79a.36.36,0,0,1,.28-.11h5a.42.42,0,0,0,.26-.1.4.4,0,0,0,.11-.29v-.9a.36.36,0,0,0-.11-.26.38.38,0,0,0-.26-.11H97.05a.45.45,0,0,0-.23.09.32.32,0,0,0-.13.28v9.93a.32.32,0,0,0,.13.28.4.4,0,0,0,.23.1h6.64a.38.38,0,0,0,.26-.11.4.4,0,0,0,.11-.27v-.92a.45.45,0,0,0-.09-.24.3.3,0,0,0-.28-.13h-5a.34.34,0,0,1-.37-.35v-2.13a.38.38,0,0,1,.11-.25.34.34,0,0,1,.26-.12H103a.32.32,0,0,0,.27-.12.38.38,0,0,0,.09-.25v-.92a.33.33,0,0,0-.1-.25.37.37,0,0,0-.26-.1H98.73a.34.34,0,0,1-.28-.12.42.42,0,0,1-.09-.27v-2.1A.43.43,0,0,1,98.45,251.79Z"/><path class="cls-1" d="M115.17,252.15a3.44,3.44,0,0,0-.75-1.12,3.32,3.32,0,0,0-1.11-.74A3.47,3.47,0,0,0,112,250h-3.5a.46.46,0,0,0-.25.08.32.32,0,0,0-.12.27v10a.36.36,0,0,0,.11.25.33.33,0,0,0,.26.11H112a3.47,3.47,0,0,0,1.36-.27,3.5,3.5,0,0,0,1.86-1.87,3.28,3.28,0,0,0,.28-1.36v-3.7A3.23,3.23,0,0,0,115.17,252.15Zm-1.38,5a1.89,1.89,0,0,1-.14.72,1.87,1.87,0,0,1-.4.59,1.82,1.82,0,0,1-.58.4,1.72,1.72,0,0,1-.72.15h-1.83a.32.32,0,0,1-.27-.12.4.4,0,0,1-.1-.26V252a.4.4,0,0,1,.09-.24.3.3,0,0,1,.28-.13H112a1.69,1.69,0,0,1,.7.15,2,2,0,0,1,.59.4,2,2,0,0,1,.4.59,1.69,1.69,0,0,1,.15.7Z"/><path class="cls-1" d="M133.66,251.81a2.86,2.86,0,0,0-1.57-1.56,2.8,2.8,0,0,0-1.16-.23h-4.05a.36.36,0,0,0-.25.1.32.32,0,0,0-.12.25v10a.32.32,0,0,0,.12.27.4.4,0,0,0,.25.09h1a.31.31,0,0,0,.26-.11.39.39,0,0,0,.1-.25v-4.07a.39.39,0,0,1,.1-.26.38.38,0,0,1,.28-.11h2.36a2.8,2.8,0,0,0,1.16-.24,2.92,2.92,0,0,0,1.57-1.57,3.06,3.06,0,0,0,0-2.28Zm-1.54,1.65a1.32,1.32,0,0,1-.27.42,1.22,1.22,0,0,1-.41.27,1.26,1.26,0,0,1-.51.11h-2.38a.32.32,0,0,1-.27-.12.44.44,0,0,1-.09-.27v-1.82a.42.42,0,0,1,.09-.27.32.32,0,0,1,.27-.12h2.38a1.26,1.26,0,0,1,.92.38,1.23,1.23,0,0,1,.37.91A1.25,1.25,0,0,1,132.12,253.46Z"/><path class="cls-1" d="M138.74,250.12a.32.32,0,0,0-.25-.1h-.94a.35.35,0,0,0-.26.11.36.36,0,0,0-.09.24v10a.43.43,0,0,0,.09.25.35.35,0,0,0,.26.11h.94a.3.3,0,0,0,.25-.11.35.35,0,0,0,.1-.25v-10A.33.33,0,0,0,138.74,250.12Z"/><path class="cls-1" d="M150.27,251.84l.09-.18a.45.45,0,0,0,0-.18v-1.09a.33.33,0,0,0-.11-.26A.37.37,0,0,0,150,250h-7.27a.4.4,0,0,0-.27.11.34.34,0,0,0-.12.26v.94a.42.42,0,0,0,.1.22.38.38,0,0,0,.29.13h4.66a.33.33,0,0,1,.25.1.31.31,0,0,1,.11.27.66.66,0,0,1-.11.35l-5.16,6.5a.56.56,0,0,0-.09.17.45.45,0,0,0,0,.19v1.08a.33.33,0,0,0,.12.25.36.36,0,0,0,.27.11H150a.38.38,0,0,0,.28-.11.38.38,0,0,0,.1-.25v-.93a.34.34,0,0,0-.11-.25.45.45,0,0,0-.27-.1h-4.66a.37.37,0,0,1-.26-.1.34.34,0,0,1-.11-.27.65.65,0,0,1,.12-.36Z"/><path class="cls-1" d="M161.55,251.84a1.5,1.5,0,0,0,.09-.18.45.45,0,0,0,0-.18v-1.09a.36.36,0,0,0-.11-.26.37.37,0,0,0-.27-.11H154a.4.4,0,0,0-.27.11.34.34,0,0,0-.12.26v.94a.42.42,0,0,0,.1.22.36.36,0,0,0,.29.13h4.65a.35.35,0,0,1,.26.1.31.31,0,0,1,.11.27.59.59,0,0,1-.12.35l-5.15,6.5a1,1,0,0,0-.1.17.65.65,0,0,0,0,.19v1.08a.33.33,0,0,0,.12.25.36.36,0,0,0,.27.11h7.27a.38.38,0,0,0,.28-.11.38.38,0,0,0,.1-.25v-.93a.32.32,0,0,0-.12-.25.42.42,0,0,0-.26-.1h-4.66a.35.35,0,0,1-.26-.1.34.34,0,0,1-.11-.27.65.65,0,0,1,.12-.36Z"/><path class="cls-1" d="M172.94,260.22l-2.66-9.93a.41.41,0,0,0-.14-.2.33.33,0,0,0-.21-.07h-2.18a.32.32,0,0,0-.35.27l-2.68,9.93a.3.3,0,0,0,0,.1.41.41,0,0,0,.1.26.35.35,0,0,0,.28.12H166a.35.35,0,0,0,.37-.28l.5-1.84a.32.32,0,0,1,.34-.29h3.2a.32.32,0,0,1,.35.29l.5,1.84a.35.35,0,0,0,.35.28h1a.38.38,0,0,0,.25-.11.37.37,0,0,0,.12-.25A.37.37,0,0,0,172.94,260.22Zm-2.88-3.69a.32.32,0,0,1-.25.12h-1.94a.34.34,0,0,1-.26-.12.39.39,0,0,1-.1-.25.25.25,0,0,1,0-.1l.94-3.55a.35.35,0,0,1,.37-.28.36.36,0,0,1,.37.28l.93,3.55a.25.25,0,0,1,0,.1A.35.35,0,0,1,170.06,256.53Z"/><path class="cls-1" d="M109.86,21.67a19.12,19.12,0,0,0-3.42-2.82l-.77-.54A19.93,19.93,0,0,0,99,15.39a34.65,34.65,0,0,1-3.65-1.26l-2.06-.91A60,60,0,0,0,85.05,10c-1-.29-2.19-.5-3.3-.7a28.9,28.9,0,0,1-4-.92,1.43,1.43,0,0,0-1.43.35,5.52,5.52,0,0,0-1.14,1.89l0,0a.8.8,0,0,0-.1.39.78.78,0,0,0,.25.58.87.87,0,0,0,.65.24.83.83,0,0,0,.72-.57l0-.1a3.82,3.82,0,0,1,.59-1.12.23.23,0,0,1,.07-.08,29.68,29.68,0,0,0,3.93.9c1.09.2,2.21.41,3.24.69a58.52,58.52,0,0,1,8,3.11l2.08.92a33.56,33.56,0,0,0,3.7,1.26,19,19,0,0,1,6.25,2.71c.19.15.46.34.79.56a17.86,17.86,0,0,1,3.15,2.57c.85,1,.73,1.42.5,1.72a.83.83,0,0,0,.15,1.16.85.85,0,0,0,.5.16.83.83,0,0,0,.66-.32C111.25,24.39,111.05,23,109.86,21.67ZM92,44.1A43.47,43.47,0,0,1,86.77,37a57,57,0,0,0-4.06-5.81c-1.42-1.69-3-3.27-4.53-4.79L77,25.26c-.29-.3-.6-.6-.91-.89-.59-.57-1.21-1.17-1.76-1.79a19.87,19.87,0,0,1-1.46-2l-.49-.74c-.3-.43-.61-.85-.93-1.27a10.91,10.91,0,0,1-2.19-3.89,9.72,9.72,0,0,1-.15-2.83c0-.68.13-1.42.62-1.72a1.24,1.24,0,0,1,1.11,0,2.05,2.05,0,0,1,1.16,2,1.07,1.07,0,0,0,.33,1.08A.83.83,0,0,0,73.44,13a1.38,1.38,0,0,0,.26-.8,3.78,3.78,0,0,0-1.63-3.3,3,3,0,0,0-3.84.34,4,4,0,0,0-.71,2.19,10.63,10.63,0,0,0,.18,3.74A12.36,12.36,0,0,0,70,19.35c.32.43.61.87.91,1.31.42.63.86,1.29,1.36,1.9,1.41,1.7,3,3.29,4.56,4.83l.2.2c1.5,1.49,3,3,4.42,4.67a56.79,56.79,0,0,1,4,5.75,44.46,44.46,0,0,0,5.37,7.25A47.63,47.63,0,0,1,96.38,52a13.15,13.15,0,0,1,2.17,4.82.84.84,0,0,0,.82.7h.13a.8.8,0,0,0,.54-.33.84.84,0,0,0,.15-.61C99.47,52,93.75,45.87,92,44.1ZM110.31,55a9.26,9.26,0,0,1-.25-1,3.82,3.82,0,0,1,.07-1v-.06a5.43,5.43,0,0,0,.08-1.59c-.12-.76-.2-1.49-.28-2.22s-.15-1.48-.27-2.24a3.32,3.32,0,0,1,.26-1.47l0-.11a5.18,5.18,0,0,0,.34-2.39,10.36,10.36,0,0,0-.5-1.79l-.1-.29a6.36,6.36,0,0,1-.38-1.77,50.69,50.69,0,0,0-.9-9.12,8.26,8.26,0,0,0-1.37-3.3,6.5,6.5,0,0,0-2.5-1.66l-.11-.05a4.59,4.59,0,0,1-1.75-1.1c-.37-.44-.72-.91-1.07-1.38a12,12,0,0,0-4.07-3.92l-.28-.14A9.91,9.91,0,0,0,93.5,17a11.32,11.32,0,0,0-1.92.17l-.48.06a4.37,4.37,0,0,1-1.9,0,3,3,0,0,1-1.14-.86A5.12,5.12,0,0,0,86.35,15c-3-1.21-5.91-.19-8.39.86a1,1,0,0,1-1.23-.26l-.21-.27a3.05,3.05,0,0,1-.36-.55,1.06,1.06,0,0,0-.94-.65.75.75,0,0,0-.67.62c-.16.57.32,1.16.66,1.59a2.21,2.21,0,0,1,.17.23,2.58,2.58,0,0,0,3.23.81c2.37-1,4.7-1.82,7.12-.84a3.2,3.2,0,0,1,1,.83l.1.11a4.61,4.61,0,0,0,1.82,1.29,5.92,5.92,0,0,0,2.63.11l.51-.07a8.19,8.19,0,0,1,1.6-.14,7.91,7.91,0,0,1,3,1.06l.39.2a10.58,10.58,0,0,1,3.52,3.46c.36.49.71,1,1.09,1.42a6.54,6.54,0,0,0,2.49,1.62,4.73,4.73,0,0,1,1.87,1.19,6.73,6.73,0,0,1,1,2.61,48.62,48.62,0,0,1,.87,8.77,7.46,7.46,0,0,0,.47,2.27l.11.35a8.87,8.87,0,0,1,.42,1.47,3.74,3.74,0,0,1-.28,1.63A5.07,5.07,0,0,0,108,47c.11.75.19,1.47.26,2.2s.16,1.49.28,2.26a3.66,3.66,0,0,1-.08,1.09,5.46,5.46,0,0,0-.07,1.6,9.79,9.79,0,0,0,.26,1.1,4.92,4.92,0,0,1,.28,1.58,3,3,0,0,1-.48,1.39l-.26.44a8.69,8.69,0,0,0-.7,1.32l0,.1c-1.46,3.61-3,7.34-6.51,9.27,0-.08.06-.17.1-.26a10.43,10.43,0,0,1,1.15-1.76l.45-.61a5.82,5.82,0,0,0,1.26-3.13,8.1,8.1,0,0,0-.14-1.72,8.31,8.31,0,0,1-.12-1.86,4.8,4.8,0,0,1,.23-.83,7,7,0,0,0,.23-.74,2.31,2.31,0,0,0-.15-1.66,42.47,42.47,0,0,0-3.27-5.24.45.45,0,0,1,0-.21,6,6,0,0,1,0-.7,4.32,4.32,0,0,0-.09-1.84,3,3,0,0,0-1.91-1.7c-.21-.09-.44-.17-.67-.25s-.57-.2-.84-.32a2.09,2.09,0,0,1-.92-.65,17.34,17.34,0,0,1-1.75-3.59c-.34-.83-.68-1.7-1.09-2.49a7.82,7.82,0,0,0-2.59-2.77l-.48-.33a5.94,5.94,0,0,1-1.54-1.3A17.32,17.32,0,0,1,87,31.34c-.13-.38-.26-.76-.39-1.11A9.39,9.39,0,0,0,85,27.78c-.26-.32-.5-.62-.71-.9A6.59,6.59,0,0,0,80,24.51a7.77,7.77,0,0,1-1-.29.83.83,0,0,1-.4-.25,5.61,5.61,0,0,1-.79-1.88c0-.2-.1-.39-.16-.58a5.41,5.41,0,0,0-2.22-3.06.82.82,0,0,0-1.15.18.85.85,0,0,0-.15.62.82.82,0,0,0,.33.54,4.1,4.1,0,0,1,1.75,2.7,7,7,0,0,0,1,2.44,3.93,3.93,0,0,0,2.39,1.19l.17,0A4.84,4.84,0,0,1,83,27.84c.21.29.46.6.73.93a7.46,7.46,0,0,1,1.38,2c.13.34.26.7.38,1.06a19.21,19.21,0,0,0,2,4.52,7.42,7.42,0,0,0,1.9,1.67l.11.08A6.89,6.89,0,0,1,92,40.58c.39.76.74,1.62,1.07,2.45a19,19,0,0,0,1.89,3.83,5.37,5.37,0,0,0,2.69,1.62,5.59,5.59,0,0,1,1,.44,1,1,0,0,1,.42.47,1.56,1.56,0,0,1,0,.55c0,.16,0,.32,0,.48s0,.33,0,.49a2.44,2.44,0,0,0,.35,1.62,43.56,43.56,0,0,1,3.15,5,1.12,1.12,0,0,1-.07.76c0,.14-.08.28-.13.41A4.93,4.93,0,0,0,102,59.9a8.78,8.78,0,0,0,.12,2.07,8.56,8.56,0,0,1,.13,1.58,4.12,4.12,0,0,1-1,2.23l-.44.6a11.17,11.17,0,0,0-1.31,2.05,3.16,3.16,0,0,0-.32,1.35,1.49,1.49,0,0,0,.34,1,1.21,1.21,0,0,0,1,.44,2.17,2.17,0,0,0,1-.27c4.21-2.18,6-6.51,7.5-10.32a9,9,0,0,1,.59-1.1c.1-.16.19-.31.27-.46a4.52,4.52,0,0,0,.7-2.14A6.29,6.29,0,0,0,110.31,55ZM93.07,23.13a9.4,9.4,0,0,0-3.53-2.3,3.11,3.11,0,0,0-3.29.44c-1.41,1.41-.61,4.34,1.87,6.82a7.7,7.7,0,0,0,5,2.56,2.53,2.53,0,0,0,1.84-.7C96.35,28.54,95.55,25.61,93.07,23.13Zm.69,5.65c-.53.53-2.53.07-4.47-1.87S86.9,23,87.43,22.45a.92.92,0,0,1,.66-.21,3.23,3.23,0,0,1,.93.17,7.86,7.86,0,0,1,2.88,1.9C93.83,26.24,94.29,28.25,93.76,28.78Zm12.41,12.5c-1-3-3.54-4.68-5.68-3.93-1.53.54-2.41,2.18-2.41,4.16A7.59,7.59,0,0,0,98.51,44a6.92,6.92,0,0,0,2.3,3.25,4,4,0,0,0,2.35.85,3,3,0,0,0,1-.18,3.62,3.62,0,0,0,2.22-2.64A6.81,6.81,0,0,0,106.17,41.28Zm-1.37,3.55a1.75,1.75,0,0,1-3,1.05,5.24,5.24,0,0,1-1.72-2.46c-.7-2-.26-4.07,1-4.5s2.86.9,3.56,2.91A5.13,5.13,0,0,1,104.8,44.83Zm-7.53-11a21.54,21.54,0,0,0-2.16-1.19,5.74,5.74,0,0,0-2.65-.45,1.65,1.65,0,0,0-1.24.53,1.67,1.67,0,0,0-.4,1.23A2.89,2.89,0,0,0,92.38,36,9.23,9.23,0,0,0,95,37.16a.83.83,0,0,0,.44-1.61,6.92,6.92,0,0,1-1.07-.39,7.94,7.94,0,0,1-1.1-.62L93,34.39l-.14-.1-.21-.2a.9.9,0,0,1-.1-.12.21.21,0,0,1-.06-.1h0a0,0,0,0,1,0,0h.67a4.35,4.35,0,0,1,.48,0,6.29,6.29,0,0,1,.62.17,4.88,4.88,0,0,1,.48.23c.2.09.39.2.57.3l1.13.67a.83.83,0,0,0,.84-1.44Zm10.54,19a.88.88,0,0,0-.25-.59A.84.84,0,0,0,107,52c-.41,0-.9.37-.84.83a14.68,14.68,0,0,1,.14,2.39c0,.25,0,.5,0,.74l-.12-.15,0,0-.06-.08a6.25,6.25,0,0,1-.53-.9s0,0,0,0,0,0,0-.06a2,2,0,0,1-.07-.23l0-.16a.28.28,0,0,1,0-.06h0c0-.34,0-.68,0-1a.83.83,0,1,0-1.66,0,5.45,5.45,0,0,0,.16,1.89,6.32,6.32,0,0,0,1.16,2,3,3,0,0,0,.82.77,1.38,1.38,0,0,0,1.51-.07,1.61,1.61,0,0,0,.54-1.21,11.11,11.11,0,0,0,.08-1.15A15.63,15.63,0,0,0,107.81,52.84ZM100.5,29.91c0,.05,0,0,0,0S100.51,29.9,100.5,29.91Zm0,0c0,.05,0,0,0,0S100.51,29.9,100.5,29.91Zm3.61-.38c-1-.84-2.31-1.8-3.65-1.52a2.09,2.09,0,0,0-1.63,1.86,2.12,2.12,0,0,0,.4,1.26c.1.14.2.27.31.4a2.28,2.28,0,0,0-.8.89c-.4.89.49,1.73,1.15,2.21a2.79,2.79,0,0,0,1.19.39,1.75,1.75,0,0,0,1.1-.34c.15-.11.29-.23.44-.36l.1-.09,0,0h0l0,0,.19.1.17.12,0,0,.45.37a1.47,1.47,0,0,0,1.23.38,1.92,1.92,0,0,0,1.27-1.94A5.41,5.41,0,0,0,104.11,29.53Zm.4,3.81-.39-.32a1.86,1.86,0,0,0-2.21-.25,4.25,4.25,0,0,0-.47.37l-.14.12a0,0,0,0,1,0,0l-.06,0,0,0h-.08l-.12,0h0l0,0-.16-.08-.26-.25h0s0,0,0,0l0-.05h0l0,0a1.28,1.28,0,0,0,.88-.75,1.51,1.51,0,0,0-.41-1.3,3.13,3.13,0,0,1-.55-.79s0,0,0-.05v0c0,.05,0,0,0,0h0a.21.21,0,0,1,0-.07.46.46,0,0,1,.12-.12l.09-.05h.3l.23.05.14,0,0,0,.13.06.21.11a3.79,3.79,0,0,1,.34.2c.24.16.46.32.63.46A5.92,5.92,0,0,1,104.05,32c.09.13.16.26.24.4l.08.16s0,.13,0,.14a2,2,0,0,1,.09.35s0,.13,0,.14S104.51,33.31,104.51,33.34Zm-4-3.43c0,.05,0,0,0,0S100.51,29.9,100.5,29.91Zm0,0c0,.05,0,0,0,0S100.51,29.9,100.5,29.91Z"/><path class="cls-1" d="M49.69,94a2.32,2.32,0,0,0-2.08-1.07,22.78,22.78,0,0,0-2.91.21L23,95.43q-1.53.16-2.4,2.52a10,10,0,0,0-.7,3.63,2.37,2.37,0,0,0,.09.73c.31.86.61,1.35.88,1.48.52.28,1.8.32,3.83.1-.58,1.72-1,3.09-1.34,4.1-.95,3-1.69,5.43-2.21,7.43-.68,2.49-1.31,5-1.9,7.57-.24,1-.55,2.42-.92,4.15l-2.17.69a3.68,3.68,0,0,0-1.57,1.42c-.12.23-.48,1.16-1.06,2.8a5.42,5.42,0,0,0-.37,1.85,2.21,2.21,0,0,0,2.31,2.36l-1.48,7c-.25,1.16-.55,2.64-.92,4.42s-.8,3.51-1.29,5.21a14.94,14.94,0,0,0-.74,3.84c0,1.29.41,2.1,1.24,2.41a6.72,6.72,0,0,0,2.73.08q3.09-.32,4.38-4c.53-2.37,1-4.73,1.57-7.1L23.79,135l11.31-1.19a5.38,5.38,0,0,0,3.9-2q1.32-1.71,1.32-5.37a.83.83,0,0,0-.6-.82,2.67,2.67,0,0,0-1.3-.16l-11.77,1.19q3.18-13.16,4.48-17a22.44,22.44,0,0,0,.92-3.29,1.82,1.82,0,0,0-.55-1.1,17.77,17.77,0,0,1-1.62-2.09q3.47-.37,6.51-.58l7.16-.49q3.56-.37,4.2-1.41c.16-.23.51-.78,1.06-1.64A7.92,7.92,0,0,0,50,95.36,2.65,2.65,0,0,0,49.69,94Z"/><path class="cls-1" d="M64.4,92.28a8.74,8.74,0,0,0-4-.46q-1.11.12-3.19,6.28-1.8,5.64-3.53,11t-3,10.12q-1.24,4.73-2.49,9.61-.78,3.07-2.59,11.39c-.64,3-1.2,5.36-1.66,7.19-.31,1.14-.53,2.11-.67,2.91a12,12,0,0,0-.21,2,3.42,3.42,0,0,0,.7,2.33,4.14,4.14,0,0,0,2.26,1.19l.51.14a5.77,5.77,0,0,0,.83,0,3.44,3.44,0,0,0,2.28-1.24,7.76,7.76,0,0,0,1.37-3.9c.27-1.88.69-4.07,1.24-6.59q.6-2.7,1.62-6.63,1.53-6.12,4.94-18.15,2.53-8.9,4.78-16.39t2.52-8.28a2.6,2.6,0,0,0,.09-.56C66.27,93.39,65.64,92.73,64.4,92.28Z"/><path class="cls-1" d="M99.47,121.82a27.55,27.55,0,0,0,6.19-7.39,21.87,21.87,0,0,0,2.91-10.87q0-9-6-12.89-4.94-3.18-13-2.33a32.36,32.36,0,0,0-8.78,2.15,21.52,21.52,0,0,0-6.42,3.74,7.53,7.53,0,0,0-2.12,3.59c0,.13-.22,1.21-.55,3.25v.51a1.44,1.44,0,0,0,.62,1.32,1.9,1.9,0,0,0,1.26.32,2.78,2.78,0,0,0,1.42-.79,6.19,6.19,0,0,1,2.53-1.61,6.13,6.13,0,0,1,1,0l.82.07L77,107.3l-3.18,10.31L65.9,146.84c-.09.32-.31,1-.65,2a9.21,9.21,0,0,0-.37,2.35,2.73,2.73,0,0,0,.26,1.27,1.68,1.68,0,0,0,1,.74,5.68,5.68,0,0,0,1.48.31,11,11,0,0,0,1.8-.08l.65,0a6,6,0,0,0,.7,0,2.28,2.28,0,0,0,1.41-.67,4.88,4.88,0,0,0,.94-2.25l.75-3.4,3.67-14.29.88-3.06,4.84,7.6,11.09,17a1.72,1.72,0,0,0,.92.73l1.25.28c.52.07,1.54-.42,3-1.48s2.35-2.2,2.17-3.13a5.63,5.63,0,0,0-.69-1.77c-.37-.48-.73-1-1.07-1.5L89.81,131.83l-2.16-3.46,6.19-2.82A24.18,24.18,0,0,0,99.47,121.82Zm-12.75-1.69A6,6,0,0,0,84,122.45a11.45,11.45,0,0,1-1.62,1.79,3.26,3.26,0,0,1-1.57,1c-.33,0-.53-.07-.6-.31a2.65,2.65,0,0,1-.09-.64c.12-.59.27-1.24.46-1.94s.38-1.44.59-2.23l4.73-15.65c.06-.16.34-.67.81-1.52a2.18,2.18,0,0,0,.34-1.51c-.25-1-.68-1.62-1.3-1.8-.34-.09-.9-.26-1.7-.51l-.65-.44.74-.49A7.74,7.74,0,0,1,87,97c1.17-.25,2.79-.48,4.85-.7q5.27-.55,7.39,2.92a9.81,9.81,0,0,1,1.29,5.26,14,14,0,0,1-2.45,8.07,18.28,18.28,0,0,1-6.78,5.84A24.41,24.41,0,0,1,86.72,120.13Z"/><path class="cls-1" d="M147,83.69c-.59-.74-1.88-1-3.88-.84s-4.08.38-6.23.61l-7.28.82c-2.57.29-5.35.6-8.33.91-1.17.12-2,1.21-2.63,3.26s-.76,3.3-.51,3.76a6.9,6.9,0,0,0,1.1,1.64,10.64,10.64,0,0,0,3.66-.06l-3.15,10.59q-.18.62-2.35,8.89c-.46,1.8-.86,3.18-1.2,4.13l-2,.22a1.52,1.52,0,0,0-1.25.83,14,14,0,0,0-.78,2,11.2,11.2,0,0,0-.44,1.61,13.43,13.43,0,0,0-.07,1.76v.84a3.06,3.06,0,0,0,.11.92.56.56,0,0,0,.49.37l1.89.36c-.83,2.73-1.44,4.87-1.85,6.42a81.87,81.87,0,0,0-2.26,10v.46a4.51,4.51,0,0,0,1.48,3.08,15.92,15.92,0,0,0,2,1.64,5,5,0,0,0,3,.66q2.15,0,6.2-.42l4.24-.45,4.2-.44a7.33,7.33,0,0,0,2.3-.52,5.35,5.35,0,0,0,2-2,12.26,12.26,0,0,0,1.13-2.22,6.43,6.43,0,0,0,.34-2,2,2,0,0,0-.49-1.26,1.81,1.81,0,0,0-1-.73,5.89,5.89,0,0,0-1.74,0q-3.51.42-6.64.76l-5.78.64a3.06,3.06,0,0,1-1.8-.18,1.07,1.07,0,0,1-.51-1,2.43,2.43,0,0,1,.1-.68c.06-.23.15-.54.27-.92.53-1.72,1-3.47,1.43-5.24,1-3.82,1.59-6.2,1.9-7.12l6.32-.67,6.28-.66a7.77,7.77,0,0,0,3-.72,5.09,5.09,0,0,0,1.7-2.69,8.9,8.9,0,0,0,.49-1.86,20.27,20.27,0,0,0,.07-2,1,1,0,0,0-.9-1.11,11,11,0,0,0-2.52.06l-12.19,1.32c.65-2.55,1-4.08,1.16-4.59q.56-2.13,1.54-5.64c.66-2.35,1.32-4.58,2-6.71.1-.28.25-.78.46-1.5a6.34,6.34,0,0,0,.33-1.81A2.18,2.18,0,0,0,130,95a1.27,1.27,0,0,0-.94-.52c-.4,0-.63-.21-.67-.53s-.09-.69-.12-1.12l5.38-.4c3.28-.24,6.06-.47,8.33-.71l1.16-.12a6.63,6.63,0,0,0,1.66-.39,2.73,2.73,0,0,0,1.27-1,7.24,7.24,0,0,0,1-2.08,8.88,8.88,0,0,0,.44-2.71A2.6,2.6,0,0,0,147,83.69Z"/><path class="cls-1" d="M62.48,164.51a7.77,7.77,0,0,0-4.11-.49,35.23,35.23,0,0,0-11.78,4,44.55,44.55,0,0,0-12.46,9c-3.85,4-5.78,8.07-5.78,12.09q0,4.66,4.81,7.94,4.43,2.44,8.86,4.84,4.75,2.91,4.76,6.84a5.61,5.61,0,0,1-.05.83,13.62,13.62,0,0,1-4.2,8.15,19.14,19.14,0,0,1-6.79,4.68,6.39,6.39,0,0,1-1.38.37c-.87.09-1.3-.26-1.3-1.06a5.06,5.06,0,0,1,.24-1.16c.15-.55.27-1,.34-1.3a6.93,6.93,0,0,1,.49-1.25,4.56,4.56,0,0,0,.55-1.49v-.28a.67.67,0,0,0-.09-.31c-.25-.84-.92-1.2-2-1.08a8.27,8.27,0,0,0-1.9.47l-1.84.75a6.1,6.1,0,0,0-3.42,3.87q-.64,3-1.29,6c-.1.44-.17.86-.23,1.27a6.44,6.44,0,0,0-.1,1.07,3.91,3.91,0,0,0,1,2.92,3.94,3.94,0,0,0,3.3.78,5.47,5.47,0,0,0,.61-.11,5.69,5.69,0,0,1,.78-.12,57.87,57.87,0,0,0,8.68-2.58,29.2,29.2,0,0,0,7.71-4.73,29.52,29.52,0,0,0,7-7.89,18.46,18.46,0,0,0,2.5-9.35,12.54,12.54,0,0,0-3.19-8.61,23.62,23.62,0,0,0-6.78-4.87c-3.82-2-5.84-3.06-6-3.2a3.82,3.82,0,0,1-1.85-3.17c0-1.63,1-3.45,3-5.48a30.24,30.24,0,0,1,5.68-4.52c3.63-2.32,6.3-3.57,8-3.74.86-.09,1.29.15,1.29.73a3,3,0,0,1-.27,1,8.83,8.83,0,0,0-1,4,2.34,2.34,0,0,0,.44,1.59,1.28,1.28,0,0,0,1.41.19,10.58,10.58,0,0,0,3-1.19,9.13,9.13,0,0,0,2.31-2.22,14.38,14.38,0,0,0,2.26-4.29,31.07,31.07,0,0,0,.83-4.78,5.67,5.67,0,0,0,0-.84A3.35,3.35,0,0,0,62.48,164.51Z"/><path class="cls-1" d="M84.16,217.21a2.07,2.07,0,0,0-1.55-.28c-.31,0-.71.11-1.2.22a23.18,23.18,0,0,1-2.49.36l-1.21.12-5,.53a17.81,17.81,0,0,1-3.23.2,3.19,3.19,0,0,0-.79-.05c.19-.58.37-1.14.54-1.7s.33-1.16.48-1.83c.58-2.34,1.26-4.88,2-7.64q1.62-5.8,3.23-11.61Q78,184.36,78.43,183t4.37-13.5c.8-2.46,1.13-3.8,1-4a3.7,3.7,0,0,0-2.21-1.86,7.13,7.13,0,0,0-3-.35c-1,.11-2,1.07-2.94,2.89a61.7,61.7,0,0,0-3.21,9.07q-.87,2.9-4.38,15.92-3.33,12.13-4.16,15.4-1.71,6.65-2.47,10.31a29.75,29.75,0,0,0-.76,5.73,3.48,3.48,0,0,0,.74,2.6c.74.7,1.18,1.09,1.34,1.2a4.16,4.16,0,0,0,3,.56l13.35-1.4c2.18-.23,3.75-1.59,4.7-4.1a17.24,17.24,0,0,0,.63-1.63,4.54,4.54,0,0,0,.21-1.36A1.5,1.5,0,0,0,84.16,217.21Z"/><path class="cls-1" d="M112,160.47A8.74,8.74,0,0,0,108,160q-1.11.12-3.19,6.28-1.8,5.64-3.53,11t-3,10.12q-1.25,4.73-2.49,9.61-.79,3.09-2.59,11.39-1,4.44-1.66,7.19c-.31,1.14-.53,2.11-.67,2.91a12.13,12.13,0,0,0-.21,2,3.47,3.47,0,0,0,.69,2.33,4.21,4.21,0,0,0,2.27,1.19l.51.14a5.64,5.64,0,0,0,.82,0,3.44,3.44,0,0,0,2.29-1.24,7.87,7.87,0,0,0,1.36-3.9q.42-2.81,1.25-6.59.6-2.7,1.62-6.63,1.52-6.12,4.94-18.15,2.53-8.89,4.77-16.39c1.5-5,2.34-7.76,2.52-8.27a3,3,0,0,0,.1-.57C113.83,161.58,113.2,160.92,112,160.47Z"/><path class="cls-1" d="M150.07,161.66a9.59,9.59,0,0,0-2.95-4.57,6,6,0,0,0-3.49-1.84,19.45,19.45,0,0,0-2.42.07A18.6,18.6,0,0,0,130.08,161a43.31,43.31,0,0,0-8,11.45,88.79,88.79,0,0,0-5.17,12.82A79.57,79.57,0,0,0,114,198.51a76.82,76.82,0,0,0-.79,10.28,19.09,19.09,0,0,0,1,6.65,11,11,0,0,0,3.6,4.77,7.66,7.66,0,0,0,2.82,1.47,8.28,8.28,0,0,0,3.09.21q4.57-.48,9.75-5.18a37.79,37.79,0,0,0,7.66-9.81q2-3.68,2.68-5a12.14,12.14,0,0,0,1.48-4.54,1.4,1.4,0,0,0-1.06-1.53l-2.17-.58a5.65,5.65,0,0,0-2-.2,3.09,3.09,0,0,0-1.75.76A5.4,5.4,0,0,0,137,198a40.39,40.39,0,0,1-5.69,10.41q-3.75,5-6.11,5.29a2.26,2.26,0,0,1-.73-.06,4.27,4.27,0,0,1-2.52-2.42,11,11,0,0,1-.71-4.17,24.39,24.39,0,0,1,.28-3.41c.18-1.33.4-2.72.64-4.16a57.49,57.49,0,0,1,1.43-6.93q1.33-5.44,3.27-11.32a45.06,45.06,0,0,1,4.79-9.46q3.87-6.12,6.64-7.57a4,4,0,0,1,1.47-.47,1.92,1.92,0,0,1,2,.87,5.12,5.12,0,0,1,.65,2.76,10.11,10.11,0,0,1-1.25,5,4.3,4.3,0,0,0-.6,2c0,1.41,1.13,2.26,3.37,2.55a9.13,9.13,0,0,0,1.66,0,2,2,0,0,0,1.44-.66c.27-.42.55-.87.83-1.33a13.76,13.76,0,0,0,1.89-4.51,22.33,22.33,0,0,0,.69-5.43A11.83,11.83,0,0,0,150.07,161.66Z"/><path class="cls-1" d="M188.72,152.49c-.58-.74-1.88-1-3.88-.83s-4.08.38-6.23.6l-7.27.83L163,154c-1.17.12-2,1.21-2.63,3.25s-.76,3.31-.51,3.77a7.39,7.39,0,0,0,1.11,1.64,10.57,10.57,0,0,0,3.65-.06l-3.14,10.58c-.12.42-.91,3.38-2.36,8.9-.46,1.8-.86,3.17-1.2,4.13l-2,.21a1.52,1.52,0,0,0-1.24.83,14.4,14.4,0,0,0-.79,2.05,12.77,12.77,0,0,0-.44,1.61,13.32,13.32,0,0,0-.07,1.76v.84a2.72,2.72,0,0,0,.12.92.56.56,0,0,0,.48.37l1.9.35c-.84,2.74-1.45,4.88-1.85,6.43a82,82,0,0,0-2.27,10v.46a4.58,4.58,0,0,0,1.48,3.08,17.87,17.87,0,0,0,2,1.64,5.06,5.06,0,0,0,3,.65,59.21,59.21,0,0,0,6.2-.42l4.24-.44,4.19-.44a7.62,7.62,0,0,0,2.31-.52,5.44,5.44,0,0,0,2-2,11.09,11.09,0,0,0,1.13-2.22,6.07,6.07,0,0,0,.34-2,2.08,2.08,0,0,0-.48-1.27,1.93,1.93,0,0,0-1-.73,6.31,6.31,0,0,0-1.73,0l-6.65.76q-3.15.36-5.77.63a3,3,0,0,1-1.8-.18,1.05,1.05,0,0,1-.51-1,2.77,2.77,0,0,1,.09-.68c.06-.23.15-.55.28-.93q.78-2.58,1.43-5.23c1-3.82,1.58-6.2,1.89-7.12l6.33-.67,6.28-.66a7.62,7.62,0,0,0,3-.73,5,5,0,0,0,1.71-2.68,9.06,9.06,0,0,0,.48-1.86c.05-.45.07-1.13.07-2a1,1,0,0,0-.9-1.12,12.24,12.24,0,0,0-2.51.06l-12.19,1.33c.64-2.55,1-4.08,1.15-4.59q.56-2.13,1.55-5.65t2-6.7l.46-1.5a6.71,6.71,0,0,0,.32-1.81,2.16,2.16,0,0,0-.34-1.3,1.26,1.26,0,0,0-1-.52c-.4,0-.62-.21-.67-.53s-.08-.69-.11-1.12c.3,0,2.1-.17,5.37-.4s6.06-.48,8.34-.72l1.15-.12a6.39,6.39,0,0,0,1.67-.38,2.9,2.9,0,0,0,1.27-1,7.75,7.75,0,0,0,1-2.09,8.85,8.85,0,0,0,.43-2.7A2.63,2.63,0,0,0,188.72,152.49Z"/><path class="cls-1" d="M161.4,121.72l-2.67-10a.35.35,0,0,0-.14-.2.33.33,0,0,0-.21-.07h-2.19a.33.33,0,0,0-.35.27l-2.68,10a.2.2,0,0,0,0,.1.39.39,0,0,0,.1.26.33.33,0,0,0,.28.13h.94a.35.35,0,0,0,.37-.29l.51-1.84a.31.31,0,0,1,.33-.29h3.21a.32.32,0,0,1,.35.29l.51,1.84a.34.34,0,0,0,.35.29h1a.42.42,0,0,0,.37-.37A.43.43,0,0,0,161.4,121.72ZM158.51,118a.32.32,0,0,1-.25.12h-1.95a.32.32,0,0,1-.25-.12.36.36,0,0,1-.1-.25s0-.08,0-.1l.94-3.56a.37.37,0,0,1,.73,0l.94,3.56s0,0,0,.1A.36.36,0,0,1,158.51,118Z"/><path class="cls-1" d="M170.86,111.61a.4.4,0,0,0-.27-.11h-.92a.45.45,0,0,0-.24.09.31.31,0,0,0-.13.28v5.91a.41.41,0,0,1-.09.26.33.33,0,0,1-.26.11.37.37,0,0,1-.32-.17l-3.93-6.31a.37.37,0,0,0-.34-.17h-1.07a.38.38,0,0,0-.37.37v9.95a.36.36,0,0,0,.12.29.36.36,0,0,0,.25.1h.92a.34.34,0,0,0,.26-.12.45.45,0,0,0,.1-.27v-5.89a.35.35,0,0,1,.1-.26.4.4,0,0,1,.27-.11.36.36,0,0,1,.31.17L169.2,122a.34.34,0,0,0,.3.19h1.09a.4.4,0,0,0,.27-.11.35.35,0,0,0,.12-.28v-9.95A.34.34,0,0,0,170.86,111.61Z"/><path class="cls-1" d="M180.77,113.63a3.76,3.76,0,0,0-.76-1.12,3.66,3.66,0,0,0-1.11-.74,3.47,3.47,0,0,0-1.36-.27H174a.46.46,0,0,0-.25.08.32.32,0,0,0-.12.27v10a.38.38,0,0,0,.37.37h3.51a3.39,3.39,0,0,0,1.37-.28,3.3,3.3,0,0,0,1.11-.75,3.73,3.73,0,0,0,.75-1.12,3.45,3.45,0,0,0,.28-1.36V115A3.48,3.48,0,0,0,180.77,113.63Zm-1.39,5.07a1.71,1.71,0,0,1-.14.72,1.84,1.84,0,0,1-.39.59,2,2,0,0,1-.59.4,1.79,1.79,0,0,1-.72.15h-1.83a.35.35,0,0,1-.28-.11.44.44,0,0,1-.09-.27v-6.67a.46.46,0,0,1,.08-.24.34.34,0,0,1,.29-.13h1.83a1.69,1.69,0,0,1,.7.15,2.08,2.08,0,0,1,.59.41,1.87,1.87,0,0,1,.4.59,1.66,1.66,0,0,1,.15.7Z"/><rect class="cls-1" x="152.71" y="107.29" width="29.43" height="1.42"/><rect class="cls-1" x="152.71" y="125" width="29.43" height="1.42"/><path class="cls-1" d="M84.48,49.16,84.4,49l-.06-.1a1,1,0,0,0-.22-.25,1.11,1.11,0,0,0-1.3-.1l-5.11,2.63-4.6,2.36-.64.34a.39.39,0,0,0-.14.1,2.25,2.25,0,0,0-.21.24,1.12,1.12,0,0,0-.19.49,1.3,1.3,0,0,0,0,.28v.08a1.18,1.18,0,0,0,0,.2,1,1,0,0,0,.23.39,1.09,1.09,0,0,0,.33.27,1.28,1.28,0,0,0,.39.13,1,1,0,0,0,.39,0,1.33,1.33,0,0,0,.35-.13l10.14-5.22.13-.07a1.1,1.1,0,0,0,.38-.29,1,1,0,0,0,.24-.49A1.2,1.2,0,0,0,84.48,49.16Z"/><path class="cls-1" d="M81.45,43.21a1.29,1.29,0,0,0-.43-.47.87.87,0,0,0-.36-.15,3.12,3.12,0,0,0-.44-.05l-.55,0-1.49-.08h-.44l-.41,0L72,42.15l-.66,0h-.14a1.22,1.22,0,0,0-.56.12h0a1.1,1.1,0,0,0-.36.28,1.14,1.14,0,0,0-.31.89,1.4,1.4,0,0,0,.11.41,1.21,1.21,0,0,0,.22.3,1.17,1.17,0,0,0,.49.3,1,1,0,0,0,.39.06l6.28.31,1.16.06,1,0,.69,0a1.16,1.16,0,0,0,.55-.08,1.36,1.36,0,0,0,.5-.36,1.22,1.22,0,0,0,.26-.52,1,1,0,0,0,0-.38A1.36,1.36,0,0,0,81.45,43.21Z"/><path class="cls-1" d="M87.6,55.6a1.39,1.39,0,0,1-.26.66l-.29.44-.61.94-.27.44-.19.29-.62,1-.64,1-.21.35c-.08.11-.15.23-.22.34s-.15.23-.22.34l-1.68,2.6a1,1,0,0,1-.34.33l-.08,0-.06,0a1.4,1.4,0,0,1-.64.11,1.36,1.36,0,0,1-.51-.18l-.2-.17a1,1,0,0,1-.24-.34,1.12,1.12,0,0,1-.07-.74,1.52,1.52,0,0,1,.24-.45l.31-.5.16-.24.24-.37,2.47-3.84c.07-.12.15-.23.22-.34l.88-1.36.18-.28.18-.28.26-.41,0,0a1.37,1.37,0,0,1,.25-.32l.17-.12.08,0a1.19,1.19,0,0,1,.54-.12,1.14,1.14,0,0,1,.59.16,1.1,1.1,0,0,1,.27.23,1.16,1.16,0,0,1,.18.27A1.18,1.18,0,0,1,87.6,55.6Z"/><path class="cls-1" d="M129.08,41.4a1.14,1.14,0,0,1,0,.45,1.38,1.38,0,0,1-.18.39,1.33,1.33,0,0,1-.29.29,1.13,1.13,0,0,1-.35.16,1.23,1.23,0,0,1-.38,0l-11.17-.2h-.38a1.14,1.14,0,0,1-.46-.09,1.17,1.17,0,0,1-.68-1,.76.76,0,0,1,0-.15s0-.08,0-.12a.9.9,0,0,1,.09-.32,1.21,1.21,0,0,1,.21-.31,1.12,1.12,0,0,1,.47-.3,1.1,1.1,0,0,1,.39-.06h0l10.77.19h.09l.79,0,.17,0a1.57,1.57,0,0,1,.29.13,1.06,1.06,0,0,1,.38.35.79.79,0,0,1,.13.26l0,.07A1.46,1.46,0,0,1,129.08,41.4Z"/><path class="cls-1" d="M124.54,28.93a1.35,1.35,0,0,0-.76.22l-.87.48-.74.41-.63.35-.65.36-.74.41-.67.38-.69.38c-.21.11-.42.24-.64.35s-.25.14-.38.21l-1,.58-.75.42a3.14,3.14,0,0,0-.39.24,1.05,1.05,0,0,0-.29.34,1.38,1.38,0,0,0-.2.68,1.56,1.56,0,0,0,.08.43,1.13,1.13,0,0,0,.21.39,1.35,1.35,0,0,0,.52.39,1.55,1.55,0,0,0,.67.11,1.34,1.34,0,0,0,.58-.2c.23-.13.46-.26.7-.38l.75-.42,1-.56.82-.46,1-.58.8-.45.64-.35.71-.4.67-.37.75-.41a1.69,1.69,0,0,0,.41-.29,1.46,1.46,0,0,0,.34-.54,1.22,1.22,0,0,0,.06-.42,1.7,1.7,0,0,0-.08-.45,1.23,1.23,0,0,0-.32-.48,1.46,1.46,0,0,0-.94-.37Z"/><path class="cls-1" d="M125.36,52.7a1.31,1.31,0,0,1-.07.41,1.2,1.2,0,0,1-.11.23,1.1,1.1,0,0,1-.38.39,1.16,1.16,0,0,1-.61.18.22.22,0,0,1-.08,0H124a1.08,1.08,0,0,1-.46-.15L122,52.83l-.8-.49-.31-.17-.35-.22-.31-.18-.39-.24-.58-.34-.43-.26-1-.59-.31-.19-.42-.25-.57-.34-.85-.51a1.55,1.55,0,0,1-.53-.47A1.25,1.25,0,0,1,115,48a.91.91,0,0,1,0-.31,1,1,0,0,1,.14-.33,1.11,1.11,0,0,1,.46-.4,1.21,1.21,0,0,1,.54-.14h.09l.2,0a1.15,1.15,0,0,1,.37.18l0,0,.4.25.29.18.3.18,1.4.83.33.2.39.23,4.69,2.81a1.82,1.82,0,0,1,.38.29A1.18,1.18,0,0,1,125.36,52.7Z"/><path class="cls-1" d="M125.09,52a1.82,1.82,0,0,0-.38-.29L120,48.9l-.39-.23-.33-.2-1.4-.83-.3-.18-.29-.18-.4-.25,0,0a1.15,1.15,0,0,0-.37-.18l-.2,0h-.09a1.21,1.21,0,0,0-.54.14,1.11,1.11,0,0,0-.46.4,1,1,0,0,0-.14.33.91.91,0,0,0,0,.31,1.25,1.25,0,0,0,.18.62,1.55,1.55,0,0,0,.53.47l.85.51.57.34.42.25.31.19,1,.59.43.26.58.34.39.24.31.18.35.22.31.17.8.49,1.53.92a1.08,1.08,0,0,0,.46.15h.09a.22.22,0,0,0,.08,0,1.16,1.16,0,0,0,.61-.18,1.1,1.1,0,0,0,.38-.39,1.2,1.2,0,0,0,.11-.23,1.31,1.31,0,0,0,.07-.41A1.18,1.18,0,0,0,125.09,52Z"/></svg>